<svg width="48" height="48" viewBox="0 0 48 48" fill="none" xmlns="http://www.w3.org/2000/svg">
<g clip-path="url(#clip0_18_30)">
<path d="M26 18C26 17.4696 26.2107 16.9609 26.5858 16.5858C26.9609 16.2107 27.4696 16 28 16H40C40.5304 16 41.0391 16.2107 41.4142 16.5858C41.7893 16.9609 42 17.4696 42 18V38C42 38.5304 41.7893 39.0391 41.4142 39.4142C41.0391 39.7893 40.5304 40 40 40H28C27.4696 40 26.9609 39.7893 26.5858 39.4142C26.2107 39.0391 26 38.5304 26 38V18Z" stroke="#228B22" stroke-width="4" stroke-linecap="round" stroke-linejoin="round"/>
<path d="M36 16V10C36 9.46957 35.7893 8.96086 35.4142 8.58579C35.0391 8.21071 34.5304 8 34 8H8C7.46957 8 6.96086 8.21071 6.58579 8.58579C6.21071 8.96086 6 9.46957 6 10V34C6 34.5304 6.21071 35.0391 6.58579 35.4142C6.96086 35.7893 7.46957 36 8 36H26" stroke="#228B22" stroke-width="4" stroke-linecap="round" stroke-linejoin="round"/>
<path d="M32 18H36" stroke="#228B22" stroke-width="4" stroke-linecap="round" stroke-linejoin="round"/>
</g>
<defs>
<clipPath id="clip0_18_30">
<rect width="48" height="48" fill="white"/>
</clipPath>
</defs>
</svg>
