<svg width="48" height="48" viewBox="0 0 48 48" fill="none" xmlns="http://www.w3.org/2000/svg">
<g clip-path="url(#clip0_18_38)">
<path d="M14 16H8C7.46957 16 6.96086 16.2107 6.58579 16.5858C6.21071 16.9609 6 17.4696 6 18V22C6 22.5304 6.21071 23.0391 6.58579 23.4142C6.96086 23.7893 7.46957 24 8 24H12C12.5304 24 13.0391 24.2107 13.4142 24.5858C13.7893 24.9609 14 25.4696 14 26V30C14 30.5304 13.7893 31.0391 13.4142 31.4142C13.0391 31.7893 12.5304 32 12 32H6" stroke="#228B22" stroke-width="4" stroke-linecap="round" stroke-linejoin="round"/>
<path d="M28 32H20V16H28" stroke="#228B22" stroke-width="4" stroke-linecap="round" stroke-linejoin="round"/>
<path d="M22 24H26" stroke="#228B22" stroke-width="4" stroke-linecap="round" stroke-linejoin="round"/>
<path d="M34 18C34 17.4696 34.2107 16.9609 34.5858 16.5858C34.9609 16.2107 35.4696 16 36 16H40C40.5304 16 41.0391 16.2107 41.4142 16.5858C41.7893 16.9609 42 17.4696 42 18V30C42 30.5304 41.7893 31.0391 41.4142 31.4142C41.0391 31.7893 40.5304 32 40 32H36C35.4696 32 34.9609 31.7893 34.5858 31.4142C34.2107 31.0391 34 30.5304 34 30V18Z" stroke="#228B22" stroke-width="4" stroke-linecap="round" stroke-linejoin="round"/>
</g>
<defs>
<clipPath id="clip0_18_38">
<rect width="48" height="48" fill="white"/>
</clipPath>
</defs>
</svg>
