<svg width="48" height="48" viewBox="0 0 48 48" fill="none" xmlns="http://www.w3.org/2000/svg">
  <g clip-path="url(#clip0_18_44)">
    <path
      d="M10 14C10 16.1217 10.8429 18.1566 12.3431 19.6569C13.8434 21.1571 15.8783 22 18 22C20.1217 22 22.1566 21.1571 23.6569 19.6569C25.1571 18.1566 26 16.1217 26 14C26 11.8783 25.1571 9.84344 23.6569 8.34315C22.1566 6.84285 20.1217 6 18 6C15.8783 6 13.8434 6.84285 12.3431 8.34315C10.8429 9.84344 10 11.8783 10 14Z"
      stroke="#228B22" stroke-width="2.5" stroke-linecap="round" stroke-linejoin="round" />
    <path
      d="M6 42V38C6 35.8783 6.84285 33.8434 8.34315 32.3431C9.84344 30.8429 11.8783 30 14 30H22C24.1217 30 26.1566 30.8429 27.6569 32.3431C29.1571 33.8434 30 35.8783 30 38V42"
      stroke="#228B22" stroke-width="2.5" stroke-linecap="round" stroke-linejoin="round" />
    <path
      d="M32 6.26001C33.7208 6.70061 35.2461 7.70141 36.3353 9.10463C37.4245 10.5078 38.0157 12.2337 38.0157 14.01C38.0157 15.7864 37.4245 17.5122 36.3353 18.9154C35.2461 20.3186 33.7208 21.3194 32 21.76"
      stroke="#228B22" stroke-width="2.5" stroke-linecap="round" stroke-linejoin="round" />
    <path d="M42 42V38C41.9898 36.2343 41.3958 34.5216 40.3105 33.1288C39.2252 31.736 37.7097 30.7414 36 30.3"
      stroke="#228B22" stroke-width="2.5" stroke-linecap="round" stroke-linejoin="round" />
  </g>
  <defs>
    <clipPath id="clip0_18_44">
      <rect width="48" height="48" fill="white" />
    </clipPath>
  </defs>
</svg>